<?xml version="1.0" encoding="UTF-8"?>
<svg id="Layer_1" data-name="Layer 1" xmlns="http://www.w3.org/2000/svg" viewBox="0 0 329.89 459.48">
  <defs>
    <style>
      .cls-1 {
        fill: #231f20;
      }
    </style>
  </defs>
  <g>
    <path class="cls-1" d="m96.43,335.45c3.69,6.05,7.62,12.1,11.82,18.11l15.09-7.21-26.91-10.9Z"/>
    <path class="cls-1" d="m70.7,284.7c3.63,8.74,7.72,17.67,12.31,26.7l26.26-10.78-38.57-15.92Z"/>
    <path class="cls-1" d="m55.24,240.27c2.37,8.35,5.16,17.14,8.43,26.25l34.19-11.65-42.62-14.6Z"/>
    <path class="cls-1" d="m44.73,194.89c1.64,8.67,3.52,17.68,5.65,26.67l40.38-12.43-46.03-14.24Z"/>
    <path class="cls-1" d="m37.64,150.45c.91,6.9,2.11,15.38,3.63,24.77l42.28-11.83-45.92-12.94Z"/>
    <polygon class="cls-1" points="109.36 300.62 164.94 323.44 220.52 300.62 164.94 277.78 109.36 300.62"/>
    <polygon class="cls-1" points="123.42 346.35 164.94 369.18 206.46 346.35 164.94 323.53 123.42 346.35"/>
    <path class="cls-1" d="m221.64,353.56c4.2-6.02,8.13-12.06,11.82-18.11l-26.91,10.9,15.09,7.21Z"/>
    <path class="cls-1" d="m246.88,311.4c4.6-9.02,8.68-17.96,12.31-26.7l-38.57,15.92,26.26,10.78Z"/>
    <path class="cls-1" d="m266.22,266.53c3.27-9.11,6.06-17.91,8.43-26.25l-42.62,14.6,34.19,11.65Z"/>
    <path class="cls-1" d="m279.5,221.56c2.13-9,4.01-18.01,5.65-26.67l-46.03,14.24,40.38,12.43Z"/>
    <path class="cls-1" d="m246.33,163.39l42.28,11.83c1.52-9.38,2.73-17.87,3.63-24.77l-45.92,12.94Z"/>
    <path class="cls-1" d="m221.84,122.92c-35.68-12.4-50.78-14.5-56.89-14.5-6.11,0-21.22,2.1-56.9,14.5l56.89,17.56,56.89-17.56Z"/>
    <path class="cls-1" d="m164.94,369.27h0s-30.81,16.85-30.81,16.85c9.31,10.31,19.54,20.34,30.81,29.89,11.28-9.55,21.5-19.58,30.81-29.89l-30.81-16.85h0Z"/>
    <polygon class="cls-1" points="90.86 209.13 164.94 231.95 239.03 209.13 164.94 186.3 90.86 209.13"/>
    <polygon class="cls-1" points="97.95 254.88 164.94 277.69 231.94 254.88 164.94 232.04 97.95 254.88"/>
    <polygon class="cls-1" points="83.65 163.39 164.94 186.21 246.24 163.39 164.94 140.57 83.65 163.39"/>
  </g>
  <g>
    <path class="cls-1" d="m137.16,65.03l-4.62,4.62c4.07,4.07,9.43,6.11,14.78,6.11s10.34-1.92,14.36-5.73v12.09h6.54v-12.09c4.02,3.81,9.18,5.73,14.36,5.73s10.7-2.04,14.78-6.11l-4.62-4.62c-5.6,5.6-14.71,5.6-20.31,0-5.6-5.6-5.6-14.71,0-20.31,5.6-5.6,14.71-5.6,20.31,0l4.62-4.62c-8.01-8.01-20.96-8.13-29.14-.38v-12.09h-6.54v12.09c-8.18-7.75-21.12-7.64-29.14.38l4.62,4.62c5.6-5.6,14.71-5.6,20.31,0,5.6,5.6,5.6,14.71,0,20.31-5.6,5.6-14.71,5.6-20.31,0Z"/>
    <path class="cls-1" d="m249.78,117.57c-41.58-15.74-70.14-23.73-84.84-23.73s-43.26,7.99-84.84,23.73c-23.92,9.05-58.31,23.73-58.31,23.73,2.07,17.8,7.51,57.83,17.03,94.29,14.3,54.72,47.83,137.64,126.12,199.23,78.29-61.59,111.82-144.51,126.12-199.23,9.52-36.46,14.96-76.49,17.03-94.29,0,0-34.39-14.68-58.31-23.73Zm35.08,116.4c-14.5,55.5-47.09,133.52-119.92,192.65-72.83-59.13-105.42-137.15-119.92-192.65-8.9-34.09-14.07-70.61-16.29-88.65,10.04-4.24,35.14-14.76,53.64-21.76,50.88-19.26,73-23.32,82.57-23.32s31.69,4.06,82.57,23.32c18.5,7,43.6,17.52,53.64,21.76-2.22,18.05-7.39,54.57-16.29,88.65Z"/>
    <path class="cls-1" d="m253.49,43.61C205.54,14.31,165.64.23,164.94,0c-.69.23-40.6,14.31-88.55,43.61C28.45,72.9,0,100.89,0,100.89,0,100.89-.02,164.84,19.77,240.65c15.77,60.36,55.73,153.94,145.17,218.84,89.44-64.89,129.41-158.48,145.17-218.84,19.79-75.81,19.77-139.75,19.77-139.75,0,0-28.45-28-76.4-57.29Zm51.98,195.83c-6.71,25.69-19.87,65.01-44.44,106.48-25.53,43.09-57.85,79.27-96.08,107.61-38.24-28.34-70.55-64.53-96.08-107.61-24.57-41.47-37.73-80.79-44.44-106.48C6.97,172.59,5.04,114.38,4.83,102.93c6.37-5.97,33.19-30.25,74.07-55.22C121.46,21.71,157.24,7.94,164.94,5.11c7.7,2.83,43.48,16.6,86.04,42.6,40.88,24.97,67.7,49.25,74.07,55.22-.21,11.45-2.14,69.67-19.59,136.5Z"/>
  </g>
</svg>