<?xml version="1.0" encoding="utf-8"?>
<!-- Generator: Adobe Illustrator 22.1.0, SVG Export Plug-In . SVG Version: 6.00 Build 0)  -->
<svg version="1.1" id="Layer_1" xmlns="http://www.w3.org/2000/svg" xmlns:xlink="http://www.w3.org/1999/xlink" x="0px" y="0px"
	 viewBox="0 0 279.1 70" style="enable-background:new 0 0 279.1 70;" xml:space="preserve">
<style type="text/css">
	.st0{fill:#D6D1CA;}
</style>
<g>
	<polygon class="st0" points="87.5,23.5 80,23.5 70.4,32.8 71.6,23.5 64.5,23.5 61.7,46.4 68.8,46.4 70,36.6 75,46.4 83.1,46.4 
		76.6,34.3 	"/>
	<path class="st0" d="M102.3,27.9h-9.6c-2.4,0-5,0.4-5.5,4.3l-1.2,10.1c-0.2,1.4,0,2.5,0.6,3.1c0.6,0.7,1.8,1,3.6,1l9.6,0
		c3.3,0,5-1.3,5.4-4.2l1.2-10.1c0.2-1.4,0-2.5-0.6-3.1C105.2,28.3,104,27.9,102.3,27.9z M99,34l-0.8,6.4c-0.1,0.9-0.4,2.7-2.8,2.7
		c-0.9,0-2.6,0-2.6,0l1.3-9.7c0.1-0.6,0.3-2.5,2.7-2.5c0.8,0,2.6,0,2.6,0S99.2,33.1,99,34z"/>
	<path class="st0" d="M125.2,27.9h-9.3c-3.7,0-5.3,1.3-5.6,4.3L109,42.3c-0.2,1.4,0,2.4,0.6,3.1c0.6,0.7,1.7,1.1,3.6,1.1h9.7
		c3.3,0,4.9-1.2,5.3-4.2l0.1-1l-7.1,0c-0.4,1.6-1.9,1.8-2.7,1.8c-0.8,0-2.5,0-2.5,0l0.5-4.3h12.1l0.8-6.7c0.2-1.4,0-2.4-0.6-3
		C128.2,28.3,127,27.9,125.2,27.9z M122,35.6l-5.1,0l0.3-2.3c0.2-1.5,1.3-2.5,2.7-2.5c0.8,0,2.6,0,2.6,0L122,35.6z"/>
	<path class="st0" d="M228.4,27.9h-9.3c-3.7,0-5.3,1.3-5.6,4.3l-1.3,10.1c-0.2,1.4,0,2.4,0.6,3.1c0.6,0.7,1.7,1.1,3.6,1.1h9.7
		c3.3,0,4.9-1.2,5.3-4.2l0.1-1l-7.1,0c-0.4,1.6-1.9,1.8-2.7,1.8c-0.8,0-2.5,0-2.5,0l0.5-4.3h12.1l0.8-6.7c0.2-1.4,0-2.4-0.6-3
		C231.5,28.3,230.3,27.9,228.4,27.9z M225.2,35.6l-5.1,0l0.3-2.3c0.2-1.5,1.3-2.5,2.7-2.5c0.8,0,2.6,0,2.6,0L225.2,35.6z"/>
	<path class="st0" d="M148.6,27.9H147c-2.2,0-3.7,1.1-3.7,1.1l-2.7,2.1l0.4-3.2h-7.1l-2.3,18.5h7.1l1.5-12.2c0,0,1.6-1.3,2.7-2.1
		c1.1-0.8,2.7-1,2.7-1s-0.3,2.4-0.4,2.9l-1.5,12.4h7.1l1.7-14.3c0.2-1.5,0-2.5-0.6-3.1C151.4,28.3,150.3,27.9,148.6,27.9z"/>
	<polygon class="st0" points="154.7,46.4 161.8,46.4 164,27.9 156.9,27.9 	"/>
	<path class="st0" d="M167.3,32.1l-1.2,10c-0.2,1.4,0,2.4,0.6,3.1c0.6,0.7,1.7,1.3,3.3,1.3h2.7c3.6,0,5.4-3.4,5.4-3.4l-0.8,6.1
		h-11.9l-0.4,3.4l13.7,0c2.6,0,5.3-0.5,5.8-4l2.5-20.7h-14.6C169.2,27.9,167.6,29.2,167.3,32.1z M174.2,33.3
		c0.2-1.3,0.9-2.5,2.8-2.5c0.7,0,2.5,0,2.5,0s-0.3,2.5-0.3,3.1l-0.8,6.2c0,0-1.4,3-4.6,3c-0.8,0-0.8,0-0.8,0L174.2,33.3z"/>
	<path class="st0" d="M236.5,32.1l-1.2,10c-0.2,1.4,0,2.4,0.6,3.1c0.6,0.7,1.7,1.3,3.3,1.3h2.7c3.6,0,5.4-3.4,5.4-3.4l-0.8,6.1
		h-11.9l-0.4,3.4l13.7,0c2.6,0,5.3-0.5,5.8-4l2.5-20.7h-14.6C238.4,27.9,236.8,29.2,236.5,32.1z M243.4,33.3
		c0.2-1.3,0.9-2.5,2.8-2.5c0.7,0,2.5,0,2.5,0s-0.3,2.5-0.3,3.1l-0.8,6.2c0,0-1.4,3-4.6,3c-0.8,0-0.8,0-0.8,0L243.4,33.3z"/>
	<path class="st0" d="M264.5,27.9c-3.1,0-4.7,1.3-5,4.2l-1.2,10c-0.2,1.4,0,2.4,0.6,3.1c0.6,0.7,1.7,1.3,3.3,1.3h2.7
		c3.6,0,5.4-3.4,5.4-3.4l-0.8,6.1h-11.9l-0.4,3.4l13.7,0c2.6,0,5.3-0.5,5.8-4l2.5-20.7H264.5z M271.3,33.9l-0.8,6.2c0,0-1.4,3-4.6,3
		c-0.8,0-0.8,0-0.8,0l1.2-9.7c0.2-1.3,0.9-2.5,2.8-2.5c0.7,0,2.5,0,2.5,0S271.4,33.3,271.3,33.9z"/>
	<path class="st0" d="M205.7,27.9h-10.2c-3.1,0-4.6,1.3-5,4.2l-0.3,2.5c-0.2,1.6,0,2.7,0.6,3.3c0.9,1,2.6,1,4.4,1.1l6.7,0l-0.1,1.1
		c-0.1,0.7-0.5,3-3.1,3c-0.7,0-2.4,0-2.4,0l0.2-1.8h-7.2l-0.1,1c-0.2,1.4,0,2.4,0.6,3.1c0.8,1,2.5,1.1,3.9,1.1h9.4
		c3.4,0,5.1-1.4,5.5-4.3l0.3-2.5c0.2-1.3,0-2.3-0.5-2.9c-0.9-1-2.7-1.2-4.3-1.2l-6.9,0l0.2-2.1c0.2-1.9,1.6-2.6,2.9-2.6
		c0.4,0,2.4,0,2.4,0l-0.2,2.5h7.1l0.2-1.3c0.2-1.4-0.1-2.4-0.7-3.1C208.3,28.2,207.3,27.9,205.7,27.9z"/>
	<path class="st0" d="M38.1,17.9c-6.3-2.4-10.7-3.6-12.9-3.6c-2.2,0-6.6,1.2-12.9,3.6c-3.6,1.4-7,2.8-8.2,3.3l-0.7,0.3l0.1,0.7
		C3.8,25,4.5,30.4,6,35.9c2.2,8.3,7.2,20.3,18.6,29.9l0.6,0.5l0.6-0.5c11.4-9.6,16.4-21.5,18.6-29.9c1.5-5.6,2.2-10.9,2.5-13.7
		l0.1-0.7l-0.7-0.3C45.1,20.7,41.8,19.3,38.1,17.9z M43.5,35.7c-2.2,8.3-7.1,20-18.3,29.4l0,0C14,55.7,9.1,43.9,6.9,35.7
		c-1.4-5.5-2.2-10.9-2.5-13.5c1.4-0.6,4.6-2,8.2-3.3c7.8-2.9,11.1-3.6,12.6-3.6c1.5,0,4.8,0.6,12.6,3.6c3.6,1.4,6.8,2.7,8.2,3.3
		C45.7,24.8,44.9,30.2,43.5,35.7z"/>
	<path class="st0" d="M25.2,16.5c-1.7,0-5,0.9-8.7,2.2l8.7,2.7l8.7-2.7C30.2,17.5,26.9,16.5,25.2,16.5z"/>
	<path class="st0" d="M25.2,21.4l-12.4,3.5l12.4,3.5l12.3-3.5l6.5,1.8c0.2-1.5,0.4-2.8,0.6-3.8c0,0,0,0,0,0l-7.1,2L25.2,21.4z"/>
	<path class="st0" d="M5.8,22.9c0.1,1,0.3,2.3,0.5,3.8l6.4-1.8L5.8,22.9z"/>
	<path class="st0" d="M6.8,29.7c0.3,1.3,0.5,2.7,0.9,4.1l6.2-1.9l11.3,3.5l11.3-3.5l6.2,1.9c0.3-1.4,0.6-2.8,0.9-4.1l-7,2.2
		l-11.3-3.5l-11.3,3.5L6.8,29.7z"/>
	<path class="st0" d="M8.5,36.6c0.4,1.3,0.8,2.6,1.3,4l5.2-1.8l10.2,3.5l10.2-3.5l5.2,1.8c0.5-1.4,0.9-2.7,1.3-4l-6.5,2.2l-10.2-3.5
		L15,38.9L8.5,36.6z"/>
	<polygon class="st0" points="25.2,49.3 33.7,45.8 25.2,42.4 16.7,45.8 	"/>
	<path class="st0" d="M12.7,47.5l4-1.6l-5.9-2.4C11.4,44.8,12,46.1,12.7,47.5z"/>
	<path class="st0" d="M39.5,43.4l-5.9,2.4l4,1.6C38.4,46.1,39,44.8,39.5,43.4z"/>
	<polygon class="st0" points="25.2,56.3 31.5,52.8 25.2,49.3 18.9,52.8 	"/>
	<path class="st0" d="M35.5,51.2l-4,1.6l2.2,1.1C34.3,53.1,35,52,35.5,51.2z"/>
	<path class="st0" d="M16.6,53.9l2.2-1.1l-4-1.6C15.4,52,16.1,53.1,16.6,53.9z"/>
	<path class="st0" d="M24.9,63.1l0.3,0.2l0.3-0.2c1.6-1.4,3-2.8,4.3-4.3l-4.6-2.5l-4.6,2.5C21.9,60.3,23.3,61.7,24.9,63.1z"/>
	<path class="st0" d="M21,9.9l-0.7,0.7c0.6,0.6,1.4,0.9,2.3,0.9c0.8,0,1.6-0.3,2.2-0.9v1.8h1v-1.8c0.6,0.6,1.4,0.9,2.2,0.9
		c0.8,0,1.6-0.3,2.3-0.9l-0.7-0.7c-0.9,0.9-2.2,0.9-3.1,0c-0.9-0.9-0.9-2.2,0-3.1c0.9-0.9,2.2-0.9,3.1,0l0.7-0.7
		c-1.2-1.2-3.2-1.2-4.4-0.1V4.2h-1v1.8c-1.2-1.2-3.2-1.2-4.4,0.1L21,6.8c0.9-0.9,2.2-0.9,3.1,0c0.9,0.9,0.9,2.2,0,3.1
		C23.2,10.8,21.8,10.8,21,9.9z"/>
	<path class="st0" d="M50.3,15.4l-0.1-0.1c0,0-2.2-2-3.1-2.7C37.2,4.4,25.9,0.3,25.8,0.2L25.2,0l-0.6,0.2c-0.1,0-11.4,4.2-21.4,12.4
		c-0.8,0.7-3.1,2.6-3.1,2.7L0,15.4l0,0.1c0,0,0,0.3,0,0.8c0,0.1,0,8.8,3.1,20.4c2.4,9.2,8,22.3,21,32.5c0,0,0.5,0.4,1,0.7l0.1,0.1
		h0.2l0.1-0.1c0.5-0.3,1-0.7,1-0.7c13-10.2,18.6-23.3,21-32.5c3-11.6,3.1-20.3,3.1-20.4c0-0.5,0-0.8,0-0.8L50.3,15.4z M46.6,36.5
		c-2.4,9.1-7.9,22.1-20.7,32.1c0,0-0.3,0.3-0.7,0.5c-0.4-0.3-0.7-0.5-0.7-0.5C11.7,58.6,6.1,45.6,3.8,36.5c-3-11.5-3-20.1-3-20.2
		c0-0.3,0-0.5,0-0.6c0.5-0.4,2.2-1.9,2.9-2.5C13.5,5.1,24.7,1,24.8,0.9l0.3-0.1l0.4,0.1c0.1,0,11.3,4.1,21.1,12.3
		c0.7,0.6,2.5,2.1,2.9,2.5c0,0.1,0,0.3,0,0.6C49.7,16.4,49.6,25,46.6,36.5z"/>
</g>
</svg>
