<?xml version="1.0" encoding="utf-8"?>
<!-- Generator: Adobe Illustrator 22.1.0, SVG Export Plug-In . SVG Version: 6.00 Build 0)  -->
<svg version="1.1" id="Layer_1" xmlns="http://www.w3.org/2000/svg" xmlns:xlink="http://www.w3.org/1999/xlink" x="0px" y="0px"
	 viewBox="0 0 87 120" style="enable-background:new 0 0 87 120;" xml:space="preserve">
<style type="text/css">
	.st0{fill:#2B3442;}
	.st1{fill:none;stroke:#DADADA;stroke-width:2;stroke-linecap:round;stroke-linejoin:round;stroke-miterlimit:10;}
	.st2{fill:#FFFFFF;}
	.st3{fill:none;stroke:#2B3442;stroke-width:2;stroke-linecap:round;stroke-linejoin:round;stroke-miterlimit:10;}
	.st4{fill:none;stroke:#2B3442;stroke-width:2;stroke-miterlimit:10;}
	.st5{fill:#DADADA;}
</style>
<g>
	<path class="st5" d="M65.7,30.7c-10.9-4.1-18.3-6.2-22.2-6.2c-3.8,0-11.3,2.1-22.2,6.2c-6.3,2.4-11.9,4.8-14.1,5.7l-1.1,0.5
		l0.1,1.2c0.5,4.7,1.8,13.9,4.3,23.4c3.7,14.3,12.3,34.8,31.9,51.2l1.1,0.9l1.1-0.9c19.6-16.4,28.2-36.9,31.9-51.2
		c2.5-9.5,3.8-18.8,4.3-23.4l0.1-1.2l-1.1-0.5C77.6,35.5,71.9,33.1,65.7,30.7z M74.9,61.2c-3.7,14.2-12.1,34.3-31.4,50.3
		C24.3,95.4,15.8,75.3,12.1,61.2C9.7,51.7,8.4,42.5,7.9,38c2.3-1,7.9-3.4,14-5.7c13.3-5,19.1-6.1,21.6-6.1c2.5,0,8.3,1.1,21.6,6.1
		c6.2,2.3,11.7,4.7,14,5.7C78.6,42.5,77.3,51.7,74.9,61.2z"/>
	<path class="st5" d="M43.5,28.3c-2.9,0-8.6,1.6-14.9,3.8l14.9,4.6l14.9-4.6C52.1,29.9,46.4,28.3,43.5,28.3z"/>
	<path class="st5" d="M43.5,36.7l-21.2,6l21.2,6l21.1-6l11.2,3.2c0.4-2.5,0.7-4.8,1-6.6c0,0,0,0-0.1,0l-12.1,3.4L43.5,36.7z"/>
	<path class="st5" d="M10.2,39.3c0.2,1.8,0.5,4,0.9,6.5l11-3.1L10.2,39.3z"/>
	<path class="st5" d="M12,51c0.4,2.2,0.9,4.6,1.5,7l10.6-3.3l19.4,6l19.4-6l10.6,3.3c0.6-2.4,1.1-4.8,1.5-7l-12.1,3.7l-19.4-6
		l-19.4,6L12,51z"/>
	<path class="st5" d="M14.8,62.8c0.6,2.2,1.4,4.5,2.2,6.9l8.9-3l17.5,6l17.6-6l8.9,3c0.9-2.4,1.6-4.7,2.2-6.8l-11.1,3.8l-17.6-6
		l-17.5,6L14.8,62.8z"/>
	<polygon class="st5" points="43.5,84.6 58,78.6 43.5,72.6 29,78.6 	"/>
	<path class="st5" d="M22.2,81.4l6.8-2.8l-10-4.1C19.9,76.7,20.9,79,22.2,81.4z"/>
	<path class="st5" d="M68.1,74.5l-10,4.1l6.8,2.8C66.1,79,67.1,76.7,68.1,74.5z"/>
	<polygon class="st5" points="43.5,96.5 54.4,90.6 43.5,84.6 32.6,90.6 	"/>
	<path class="st5" d="M61.2,87.8l-6.9,2.8l3.8,1.8C59.2,91,60.4,89.2,61.2,87.8z"/>
	<path class="st5" d="M28.8,92.4l3.8-1.8l-6.9-2.8C26.6,89.2,27.8,91,28.8,92.4z"/>
	<path class="st5" d="M42.9,108.2l0.6,0.3l0.6-0.3c2.7-2.4,5.1-4.8,7.3-7.3l-7.9-4.3l-7.9,4.3C37.8,103.4,40.3,105.8,42.9,108.2z"/>
	<path class="st5" d="M36.2,17L35,18.2c1.1,1.1,2.5,1.6,3.9,1.6c1.4,0,2.7-0.5,3.8-1.5v3.2h1.7v-3.2c1.1,1,2.4,1.5,3.8,1.5
		c1.4,0,2.8-0.5,3.9-1.6L50.8,17c-1.5,1.5-3.8,1.5-5.3,0c-1.5-1.5-1.5-3.8,0-5.3c1.5-1.5,3.8-1.5,5.3,0l1.2-1.2
		c-2.1-2.1-5.5-2.1-7.6-0.1V7.2h-1.7v3.2c-2.1-2-5.5-2-7.6,0.1l1.2,1.2c1.5-1.5,3.8-1.5,5.3,0c1.5,1.5,1.5,3.8,0,5.3
		C40.1,18.5,37.7,18.5,36.2,17z"/>
	<path class="st5" d="M86.6,26.4l-0.2-0.2c0,0-3.8-3.4-5.3-4.5C64,7.5,44.7,0.4,44.5,0.4l-1-0.4l-1,0.4C42.3,0.4,23,7.5,5.8,21.7
		c-1.4,1.2-5.2,4.5-5.3,4.5l-0.2,0.2l0,0.2c0,0,0,0.5,0,1.4c0,0.1,0.1,15.1,5.2,34.9c4.1,15.8,13.7,38.3,35.9,55.8
		c0,0,0.8,0.7,1.7,1.2l0.2,0.1h0.4l0.2-0.1c0.8-0.6,1.6-1.2,1.7-1.2c22.2-17.5,31.8-40,35.9-55.8c5.2-19.8,5.2-34.8,5.2-34.9
		c0-0.9,0-1.4,0-1.4L86.6,26.4z M80.2,62.6c-4.1,15.6-13.5,37.8-35.5,55.1c0,0-0.6,0.5-1.2,0.9c-0.7-0.5-1.2-0.9-1.2-0.9
		c-22-17.3-31.4-39.5-35.5-55.1C1.6,42.9,1.6,28.2,1.6,28c0-0.5,0-0.8,0-1c0.8-0.7,3.8-3.3,5-4.3c16.9-14,36.1-21,36.3-21.1l0.6-0.2
		l0.6,0.2c0.2,0.1,19.3,7.1,36.3,21.1c1.2,1,4.2,3.6,5,4.3c0,0.2,0,0.5,0,1C85.4,28.2,85.4,42.9,80.2,62.6z"/>
</g>
</svg>
